<mxfile host="app.diagrams.net" modified="2021-09-01T06:05:50.950Z" agent="5.0 (Macintosh; Intel Mac OS X 10_15_0) AppleWebKit/537.36 (KHTML, like Gecko) Chrome/92.0.4515.159 Safari/537.36" etag="e_dLOPA4z_yXWYE9wmEk" version="14.9.9" type="github">
  <diagram id="fc-jLo8pmTgUkwQfjdc5" name="Page-1">
    <mxGraphModel dx="1678" dy="934" grid="1" gridSize="10" guides="1" tooltips="1" connect="1" arrows="1" fold="1" page="1" pageScale="1" pageWidth="827" pageHeight="1169" math="0" shadow="0">
      <root>
        <mxCell id="0" />
        <mxCell id="1" parent="0" />
        <mxCell id="ZELyUJejGlhZhiZkK94p-53" value="" style="rounded=0;whiteSpace=wrap;html=1;" vertex="1" parent="1">
          <mxGeometry x="50" y="208.75" width="1510" height="950" as="geometry" />
        </mxCell>
        <mxCell id="ZELyUJejGlhZhiZkK94p-27" value="" style="rounded=0;whiteSpace=wrap;html=1;" vertex="1" parent="1">
          <mxGeometry x="310" y="525" width="270" height="235" as="geometry" />
        </mxCell>
        <mxCell id="ZELyUJejGlhZhiZkK94p-1" value="" style="ellipse;whiteSpace=wrap;html=1;fillColor=#ffe6cc;strokeColor=#d79b00;" vertex="1" parent="1">
          <mxGeometry x="180" y="220" width="530" height="360" as="geometry" />
        </mxCell>
        <mxCell id="ZELyUJejGlhZhiZkK94p-2" value="&lt;b&gt;&lt;font style=&quot;font-size: 24px&quot;&gt;高并发系统&lt;/font&gt;&lt;/b&gt;" style="text;html=1;strokeColor=none;fillColor=none;align=center;verticalAlign=middle;whiteSpace=wrap;rounded=0;" vertex="1" parent="1">
          <mxGeometry x="380" y="260" width="130" height="20" as="geometry" />
        </mxCell>
        <mxCell id="ZELyUJejGlhZhiZkK94p-3" value="高可用&lt;br&gt;(稳定性)" style="ellipse;whiteSpace=wrap;html=1;aspect=fixed;gradientColor=#97d077;fillColor=#d5e8d4;strokeColor=#82b366;" vertex="1" parent="1">
          <mxGeometry x="240" y="310" width="80" height="80" as="geometry" />
        </mxCell>
        <mxCell id="ZELyUJejGlhZhiZkK94p-4" value="高性能&lt;br&gt;(性能优化)" style="ellipse;whiteSpace=wrap;html=1;aspect=fixed;gradientColor=#97d077;fillColor=#d5e8d4;strokeColor=#82b366;" vertex="1" parent="1">
          <mxGeometry x="340" y="310" width="80" height="80" as="geometry" />
        </mxCell>
        <mxCell id="ZELyUJejGlhZhiZkK94p-5" value="高扩展&lt;br&gt;(弹性扩展)" style="ellipse;whiteSpace=wrap;html=1;aspect=fixed;gradientColor=#97d077;fillColor=#d5e8d4;strokeColor=#82b366;" vertex="1" parent="1">
          <mxGeometry x="470" y="310" width="80" height="80" as="geometry" />
        </mxCell>
        <mxCell id="ZELyUJejGlhZhiZkK94p-6" value="安全性&lt;br&gt;(信息/数据)" style="ellipse;whiteSpace=wrap;html=1;aspect=fixed;gradientColor=#97d077;fillColor=#d5e8d4;strokeColor=#82b366;" vertex="1" parent="1">
          <mxGeometry x="570" y="310" width="80" height="80" as="geometry" />
        </mxCell>
        <mxCell id="ZELyUJejGlhZhiZkK94p-7" value="" style="endArrow=none;dashed=1;html=1;dashPattern=1 3;strokeWidth=2;exitX=0;exitY=0.5;exitDx=0;exitDy=0;" edge="1" parent="1" source="ZELyUJejGlhZhiZkK94p-1">
          <mxGeometry width="50" height="50" relative="1" as="geometry">
            <mxPoint x="280" y="480" as="sourcePoint" />
            <mxPoint x="710" y="400" as="targetPoint" />
          </mxGeometry>
        </mxCell>
        <mxCell id="ZELyUJejGlhZhiZkK94p-8" value="业务" style="ellipse;whiteSpace=wrap;html=1;gradientColor=#97d077;fillColor=#d5e8d4;strokeColor=#82b366;" vertex="1" parent="1">
          <mxGeometry x="260" y="460" width="100" height="60" as="geometry" />
        </mxCell>
        <mxCell id="ZELyUJejGlhZhiZkK94p-9" value="技术" style="ellipse;whiteSpace=wrap;html=1;gradientColor=#97d077;fillColor=#d5e8d4;strokeColor=#82b366;" vertex="1" parent="1">
          <mxGeometry x="530" y="460" width="100" height="60" as="geometry" />
        </mxCell>
        <mxCell id="ZELyUJejGlhZhiZkK94p-11" value="" style="shape=doubleArrow;whiteSpace=wrap;html=1;" vertex="1" parent="1">
          <mxGeometry x="360" y="470" width="170" height="40" as="geometry" />
        </mxCell>
        <mxCell id="ZELyUJejGlhZhiZkK94p-12" value="" style="endArrow=classic;html=1;exitX=0;exitY=0;exitDx=0;exitDy=0;startArrow=none;" edge="1" parent="1" source="ZELyUJejGlhZhiZkK94p-27">
          <mxGeometry width="50" height="50" relative="1" as="geometry">
            <mxPoint x="308" y="590" as="sourcePoint" />
            <mxPoint x="310" y="800" as="targetPoint" />
          </mxGeometry>
        </mxCell>
        <mxCell id="ZELyUJejGlhZhiZkK94p-13" value="" style="endArrow=classic;html=1;exitX=0.5;exitY=1;exitDx=0;exitDy=0;" edge="1" parent="1" source="ZELyUJejGlhZhiZkK94p-9">
          <mxGeometry width="50" height="50" relative="1" as="geometry">
            <mxPoint x="570" y="720" as="sourcePoint" />
            <mxPoint x="580" y="800" as="targetPoint" />
          </mxGeometry>
        </mxCell>
        <mxCell id="ZELyUJejGlhZhiZkK94p-14" value="" style="triangle;whiteSpace=wrap;html=1;rotation=-90;fillColor=#dae8fc;strokeColor=#6c8ebf;" vertex="1" parent="1">
          <mxGeometry x="391.25" y="606.25" width="112.5" height="155" as="geometry" />
        </mxCell>
        <mxCell id="ZELyUJejGlhZhiZkK94p-15" value="效率" style="text;html=1;strokeColor=none;fillColor=none;align=center;verticalAlign=middle;whiteSpace=wrap;rounded=0;" vertex="1" parent="1">
          <mxGeometry x="428" y="600" width="40" height="20" as="geometry" />
        </mxCell>
        <mxCell id="ZELyUJejGlhZhiZkK94p-16" value="成本" style="text;html=1;strokeColor=none;fillColor=none;align=center;verticalAlign=middle;whiteSpace=wrap;rounded=0;" vertex="1" parent="1">
          <mxGeometry x="320" y="730" width="40" height="20" as="geometry" />
        </mxCell>
        <mxCell id="ZELyUJejGlhZhiZkK94p-17" value="质量" style="text;html=1;strokeColor=none;fillColor=none;align=center;verticalAlign=middle;whiteSpace=wrap;rounded=0;" vertex="1" parent="1">
          <mxGeometry x="530" y="730" width="40" height="20" as="geometry" />
        </mxCell>
        <mxCell id="ZELyUJejGlhZhiZkK94p-18" value="" style="ellipse;whiteSpace=wrap;html=1;aspect=fixed;fillColor=#f8cecc;strokeColor=#b85450;" vertex="1" parent="1">
          <mxGeometry x="444" y="702" width="8" height="8" as="geometry" />
        </mxCell>
        <mxCell id="ZELyUJejGlhZhiZkK94p-19" value="" style="endArrow=none;html=1;entryX=0;entryY=1;entryDx=0;entryDy=0;exitX=0;exitY=0;exitDx=0;exitDy=0;exitPerimeter=0;" edge="1" parent="1" source="ZELyUJejGlhZhiZkK94p-14" target="ZELyUJejGlhZhiZkK94p-18">
          <mxGeometry width="50" height="50" relative="1" as="geometry">
            <mxPoint x="310" y="860" as="sourcePoint" />
            <mxPoint x="360" y="810" as="targetPoint" />
          </mxGeometry>
        </mxCell>
        <mxCell id="ZELyUJejGlhZhiZkK94p-20" value="" style="endArrow=none;html=1;entryX=1;entryY=1;entryDx=0;entryDy=0;exitX=0;exitY=0.987;exitDx=0;exitDy=0;exitPerimeter=0;" edge="1" parent="1" source="ZELyUJejGlhZhiZkK94p-14" target="ZELyUJejGlhZhiZkK94p-18">
          <mxGeometry width="50" height="50" relative="1" as="geometry">
            <mxPoint x="522" y="735" as="sourcePoint" />
            <mxPoint x="550" y="780" as="targetPoint" />
          </mxGeometry>
        </mxCell>
        <mxCell id="ZELyUJejGlhZhiZkK94p-21" value="" style="endArrow=none;html=1;entryX=1;entryY=0.5;entryDx=0;entryDy=0;exitX=0.5;exitY=0;exitDx=0;exitDy=0;" edge="1" parent="1" source="ZELyUJejGlhZhiZkK94p-18" target="ZELyUJejGlhZhiZkK94p-14">
          <mxGeometry width="50" height="50" relative="1" as="geometry">
            <mxPoint x="440" y="820" as="sourcePoint" />
            <mxPoint x="490" y="770" as="targetPoint" />
          </mxGeometry>
        </mxCell>
        <mxCell id="ZELyUJejGlhZhiZkK94p-22" value="业务复杂度" style="text;html=1;strokeColor=none;fillColor=none;align=center;verticalAlign=middle;whiteSpace=wrap;rounded=0;" vertex="1" parent="1">
          <mxGeometry x="280" y="632.5" width="20" height="20" as="geometry" />
        </mxCell>
        <mxCell id="ZELyUJejGlhZhiZkK94p-23" value="技术复杂度" style="text;html=1;strokeColor=none;fillColor=none;align=center;verticalAlign=middle;whiteSpace=wrap;rounded=0;" vertex="1" parent="1">
          <mxGeometry x="590" y="606.25" width="20" height="103.75" as="geometry" />
        </mxCell>
        <mxCell id="ZELyUJejGlhZhiZkK94p-24" value="熵增定律" style="text;html=1;strokeColor=none;fillColor=none;align=center;verticalAlign=middle;whiteSpace=wrap;rounded=0;" vertex="1" parent="1">
          <mxGeometry x="420" y="460" width="65" height="20" as="geometry" />
        </mxCell>
        <mxCell id="ZELyUJejGlhZhiZkK94p-25" value="底层驱动" style="text;html=1;strokeColor=none;fillColor=none;align=center;verticalAlign=middle;whiteSpace=wrap;rounded=0;" vertex="1" parent="1">
          <mxGeometry x="110" y="440" width="60" height="20" as="geometry" />
        </mxCell>
        <mxCell id="ZELyUJejGlhZhiZkK94p-26" value="上层表现" style="text;html=1;strokeColor=none;fillColor=none;align=center;verticalAlign=middle;whiteSpace=wrap;rounded=0;" vertex="1" parent="1">
          <mxGeometry x="110" y="360" width="60" height="20" as="geometry" />
        </mxCell>
        <mxCell id="ZELyUJejGlhZhiZkK94p-31" value="" style="endArrow=none;html=1;exitX=0.5;exitY=1;exitDx=0;exitDy=0;" edge="1" parent="1" source="ZELyUJejGlhZhiZkK94p-8">
          <mxGeometry width="50" height="50" relative="1" as="geometry">
            <mxPoint x="310" y="520" as="sourcePoint" />
            <mxPoint x="309.5" y="530" as="targetPoint" />
          </mxGeometry>
        </mxCell>
        <mxCell id="ZELyUJejGlhZhiZkK94p-35" value="" style="ellipse;whiteSpace=wrap;html=1;fillColor=#ffe6cc;strokeColor=#d79b00;" vertex="1" parent="1">
          <mxGeometry x="180" y="780" width="530" height="360" as="geometry" />
        </mxCell>
        <mxCell id="ZELyUJejGlhZhiZkK94p-36" value="&lt;b&gt;&lt;font style=&quot;font-size: 24px&quot;&gt;不可维护系统&lt;/font&gt;&lt;/b&gt;" style="text;html=1;strokeColor=none;fillColor=none;align=center;verticalAlign=middle;whiteSpace=wrap;rounded=0;" vertex="1" parent="1">
          <mxGeometry x="380" y="810" width="150" height="20" as="geometry" />
        </mxCell>
        <mxCell id="ZELyUJejGlhZhiZkK94p-38" value="业务复杂" style="ellipse;whiteSpace=wrap;html=1;gradientColor=#d5739d;fillColor=#e6d0de;strokeColor=#996185;" vertex="1" parent="1">
          <mxGeometry x="260" y="840" width="100" height="60" as="geometry" />
        </mxCell>
        <mxCell id="ZELyUJejGlhZhiZkK94p-39" value="技术淘汰" style="ellipse;whiteSpace=wrap;html=1;gradientColor=#d5739d;fillColor=#e6d0de;strokeColor=#996185;" vertex="1" parent="1">
          <mxGeometry x="530" y="840" width="100" height="60" as="geometry" />
        </mxCell>
        <mxCell id="ZELyUJejGlhZhiZkK94p-40" value="" style="shape=doubleArrow;whiteSpace=wrap;html=1;" vertex="1" parent="1">
          <mxGeometry x="360" y="850" width="170" height="40" as="geometry" />
        </mxCell>
        <mxCell id="ZELyUJejGlhZhiZkK94p-41" value="" style="endArrow=none;dashed=1;html=1;dashPattern=1 3;strokeWidth=2;exitX=0;exitY=0.5;exitDx=0;exitDy=0;" edge="1" parent="1">
          <mxGeometry width="50" height="50" relative="1" as="geometry">
            <mxPoint x="180.00000000000136" y="959.4100000000002" as="sourcePoint" />
            <mxPoint x="710" y="959.4099999999997" as="targetPoint" />
          </mxGeometry>
        </mxCell>
        <mxCell id="ZELyUJejGlhZhiZkK94p-42" value="故障频繁" style="ellipse;whiteSpace=wrap;html=1;aspect=fixed;gradientColor=#d5739d;fillColor=#e6d0de;strokeColor=#996185;" vertex="1" parent="1">
          <mxGeometry x="242.5" y="980" width="80" height="80" as="geometry" />
        </mxCell>
        <mxCell id="ZELyUJejGlhZhiZkK94p-43" value="耗时严重" style="ellipse;whiteSpace=wrap;html=1;aspect=fixed;gradientColor=#d5739d;fillColor=#e6d0de;strokeColor=#996185;" vertex="1" parent="1">
          <mxGeometry x="342.5" y="980" width="80" height="80" as="geometry" />
        </mxCell>
        <mxCell id="ZELyUJejGlhZhiZkK94p-44" value="无法扩展" style="ellipse;whiteSpace=wrap;html=1;aspect=fixed;gradientColor=#d5739d;fillColor=#e6d0de;strokeColor=#996185;" vertex="1" parent="1">
          <mxGeometry x="472.5" y="980" width="80" height="80" as="geometry" />
        </mxCell>
        <mxCell id="ZELyUJejGlhZhiZkK94p-45" value="数据冗乱" style="ellipse;whiteSpace=wrap;html=1;aspect=fixed;gradientColor=#d5739d;fillColor=#e6d0de;strokeColor=#996185;" vertex="1" parent="1">
          <mxGeometry x="572.5" y="980" width="80" height="80" as="geometry" />
        </mxCell>
        <mxCell id="ZELyUJejGlhZhiZkK94p-46" value="底层驱动" style="text;html=1;strokeColor=none;fillColor=none;align=center;verticalAlign=middle;whiteSpace=wrap;rounded=0;" vertex="1" parent="1">
          <mxGeometry x="110" y="900" width="60" height="20" as="geometry" />
        </mxCell>
        <mxCell id="ZELyUJejGlhZhiZkK94p-47" value="上层表现" style="text;html=1;strokeColor=none;fillColor=none;align=center;verticalAlign=middle;whiteSpace=wrap;rounded=0;" vertex="1" parent="1">
          <mxGeometry x="110" y="1000" width="60" height="20" as="geometry" />
        </mxCell>
        <mxCell id="ZELyUJejGlhZhiZkK94p-48" value="架构师" style="shape=umlActor;verticalLabelPosition=bottom;verticalAlign=top;html=1;outlineConnect=0;" vertex="1" parent="1">
          <mxGeometry x="980" y="632.5" width="30" height="60" as="geometry" />
        </mxCell>
        <mxCell id="ZELyUJejGlhZhiZkK94p-49" value="" style="endArrow=classic;html=1;" edge="1" parent="1">
          <mxGeometry width="50" height="50" relative="1" as="geometry">
            <mxPoint x="710" y="960" as="sourcePoint" />
            <mxPoint x="980" y="700" as="targetPoint" />
          </mxGeometry>
        </mxCell>
        <mxCell id="ZELyUJejGlhZhiZkK94p-50" value="" style="endArrow=classic;html=1;" edge="1" parent="1">
          <mxGeometry width="50" height="50" relative="1" as="geometry">
            <mxPoint x="970" y="640" as="sourcePoint" />
            <mxPoint x="710" y="400" as="targetPoint" />
          </mxGeometry>
        </mxCell>
        <mxCell id="ZELyUJejGlhZhiZkK94p-51" value="&lt;font style=&quot;font-size: 20px&quot;&gt;宏观认知,微观清晰，熟知业务和技术，明确问题点&lt;/font&gt;" style="text;html=1;strokeColor=none;fillColor=none;align=center;verticalAlign=middle;whiteSpace=wrap;rounded=0;" vertex="1" parent="1">
          <mxGeometry x="710" y="890" width="470" height="20" as="geometry" />
        </mxCell>
        <mxCell id="ZELyUJejGlhZhiZkK94p-52" value="&lt;font style=&quot;font-size: 20px&quot;&gt;跨领域的业务和技术，业务拆解方案对比，确定架构设计&lt;/font&gt;" style="text;html=1;strokeColor=none;fillColor=none;align=center;verticalAlign=middle;whiteSpace=wrap;rounded=0;" vertex="1" parent="1">
          <mxGeometry x="730" y="520" width="510" height="20" as="geometry" />
        </mxCell>
        <mxCell id="ZELyUJejGlhZhiZkK94p-58" value="" style="edgeStyle=orthogonalEdgeStyle;rounded=0;orthogonalLoop=1;jettySize=auto;html=1;" edge="1" parent="1" source="ZELyUJejGlhZhiZkK94p-54" target="ZELyUJejGlhZhiZkK94p-57">
          <mxGeometry relative="1" as="geometry" />
        </mxCell>
        <mxCell id="ZELyUJejGlhZhiZkK94p-54" value="数据架构" style="ellipse;whiteSpace=wrap;html=1;aspect=fixed;fillColor=#fad7ac;strokeColor=#b46504;" vertex="1" parent="1">
          <mxGeometry x="1080" y="720" width="80" height="80" as="geometry" />
        </mxCell>
        <mxCell id="ZELyUJejGlhZhiZkK94p-57" value="数据分析" style="ellipse;shape=cloud;whiteSpace=wrap;html=1;fillColor=#b0e3e6;strokeColor=#0e8088;" vertex="1" parent="1">
          <mxGeometry x="1220" y="720" width="120" height="80" as="geometry" />
        </mxCell>
        <mxCell id="ZELyUJejGlhZhiZkK94p-59" value="" style="edgeStyle=orthogonalEdgeStyle;rounded=0;orthogonalLoop=1;jettySize=auto;html=1;" edge="1" parent="1" source="ZELyUJejGlhZhiZkK94p-60" target="ZELyUJejGlhZhiZkK94p-61">
          <mxGeometry relative="1" as="geometry" />
        </mxCell>
        <mxCell id="ZELyUJejGlhZhiZkK94p-60" value="应用架构" style="ellipse;whiteSpace=wrap;html=1;aspect=fixed;fillColor=#fad7ac;strokeColor=#b46504;" vertex="1" parent="1">
          <mxGeometry x="1080" y="635" width="80" height="80" as="geometry" />
        </mxCell>
        <mxCell id="ZELyUJejGlhZhiZkK94p-61" value="产品研发" style="ellipse;shape=cloud;whiteSpace=wrap;html=1;fillColor=#b0e3e6;strokeColor=#0e8088;" vertex="1" parent="1">
          <mxGeometry x="1220" y="635" width="120" height="80" as="geometry" />
        </mxCell>
        <mxCell id="ZELyUJejGlhZhiZkK94p-62" value="" style="edgeStyle=orthogonalEdgeStyle;rounded=0;orthogonalLoop=1;jettySize=auto;html=1;" edge="1" parent="1" source="ZELyUJejGlhZhiZkK94p-63" target="ZELyUJejGlhZhiZkK94p-64">
          <mxGeometry relative="1" as="geometry" />
        </mxCell>
        <mxCell id="ZELyUJejGlhZhiZkK94p-63" value="业务架构" style="ellipse;whiteSpace=wrap;html=1;aspect=fixed;fillColor=#fad7ac;strokeColor=#b46504;" vertex="1" parent="1">
          <mxGeometry x="1080" y="550" width="80" height="80" as="geometry" />
        </mxCell>
        <mxCell id="ZELyUJejGlhZhiZkK94p-64" value="业务运营" style="ellipse;shape=cloud;whiteSpace=wrap;html=1;fillColor=#b0e3e6;strokeColor=#0e8088;" vertex="1" parent="1">
          <mxGeometry x="1220" y="550" width="120" height="80" as="geometry" />
        </mxCell>
        <mxCell id="ZELyUJejGlhZhiZkK94p-65" value="" style="shape=curlyBracket;whiteSpace=wrap;html=1;rounded=1;" vertex="1" parent="1">
          <mxGeometry x="1050" y="570" width="20" height="290" as="geometry" />
        </mxCell>
        <mxCell id="ZELyUJejGlhZhiZkK94p-66" value="" style="edgeStyle=orthogonalEdgeStyle;rounded=0;orthogonalLoop=1;jettySize=auto;html=1;" edge="1" parent="1" source="ZELyUJejGlhZhiZkK94p-67" target="ZELyUJejGlhZhiZkK94p-68">
          <mxGeometry relative="1" as="geometry" />
        </mxCell>
        <mxCell id="ZELyUJejGlhZhiZkK94p-67" value="技术架构" style="ellipse;whiteSpace=wrap;html=1;aspect=fixed;fillColor=#fad7ac;strokeColor=#b46504;" vertex="1" parent="1">
          <mxGeometry x="1080" y="810" width="80" height="80" as="geometry" />
        </mxCell>
        <mxCell id="ZELyUJejGlhZhiZkK94p-68" value="机器部署" style="ellipse;shape=cloud;whiteSpace=wrap;html=1;fillColor=#b0e3e6;strokeColor=#0e8088;" vertex="1" parent="1">
          <mxGeometry x="1220" y="810" width="120" height="80" as="geometry" />
        </mxCell>
      </root>
    </mxGraphModel>
  </diagram>
</mxfile>
